<svg width="22" height="22" viewBox="0 0 22 22" fill="none" xmlns="http://www.w3.org/2000/svg">
<path d="M13.0155 7.71618C12.4311 7.03378 12.1656 6.44243 12.1656 5.43768V5.09606C12.1656 3.7868 11.8642 2.94323 11.2091 2.09965C10.1994 0.789585 8.49945 0 6.8353 0H6.76459C5.13548 0 3.48885 0.75333 2.46158 2.01022C1.77062 2.87071 1.43431 3.75054 1.43431 5.09606V5.43768C1.43431 6.44243 1.18623 7.03378 0.584395 7.71618C0.141518 8.21897 0 8.86513 0 9.56448C0 10.2646 0.229759 10.9277 0.690955 11.4668C1.29279 12.1129 2.14278 12.5254 3.01102 12.5972C4.26797 12.7405 5.525 12.7945 6.80035 12.7945C8.07489 12.7945 9.33192 12.7043 10.5897 12.5972C11.4571 12.5254 12.3071 12.1129 12.9089 11.4668C13.3693 10.9277 13.5999 10.2646 13.5999 9.56448C13.5999 8.86513 13.4584 8.21897 13.0155 7.71618Z" fill="black"/>
<path opacity="0.4" d="M8.40694 13.7828C8.00695 13.6974 5.57009 13.6974 5.17009 13.7828C4.82826 13.8618 4.4585 14.0455 4.4585 14.4483C4.47842 14.8326 4.70346 15.1719 5.01505 15.387L5.01433 15.3878C5.41737 15.7019 5.89049 15.9018 6.38584 15.9735C6.64976 16.0098 6.91848 16.0082 7.19199 15.9735C7.68655 15.9018 8.15967 15.7019 8.56278 15.3878L8.56198 15.387C8.87366 15.1719 9.09862 14.8326 9.11854 14.4483C9.11854 14.0455 8.74878 13.8618 8.40694 13.7828Z" fill="black"/>
</svg>
 